<svg xmlns="http://www.w3.org/2000/svg" width="15" height="15"
     viewBox="0 0 15 15">
    <defs>
        <clipPath id="clip-path">
            <rect id="Rectangle_18868" data-name="Rectangle 18868" width="15" height="15" fill="#fd7e49"/>
        </clipPath>
    </defs>
    <g id="Mask_Group_105" data-name="Mask Group 105" clip-path="url(#clip-path)">
        <path id="pen_8_" data-name="pen (8)"
              d="M13.278.6a2.066,2.066,0,0,0-2.919,0l-.731.735L1.851,9.11l-.017.017s0,.008-.008.008-.021.025-.029.037,0,0,0,.008-.012.021-.021.033,0,.008-.008.012-.008.021-.013.033,0,0,0,.008L.022,14.456a.406.406,0,0,0,.1.421A.415.415,0,0,0,.414,15a.487.487,0,0,0,.132-.021l5.185-1.73s0,0,.008,0a.15.15,0,0,0,.037-.017.015.015,0,0,0,.008,0l.041-.025c.012-.008.025-.021.037-.029s.008,0,.008-.008.013-.008.017-.017L14.4,4.636a2.066,2.066,0,0,0,0-2.919ZM5.6,12.277,2.726,9.4,9.917,2.212,12.79,5.086ZM2.321,10.167l2.51,2.51L1.062,13.932Zm11.493-6.11-.438.442L10.5,1.626l.442-.442a1.238,1.238,0,0,1,1.75,0l1.123,1.123A1.242,1.242,0,0,1,13.814,4.058Zm0,0"
              transform="translate(0 0.002)" fill="#fd7e49"/>
    </g>
</svg>
